<svg xmlns="http://www.w3.org/2000/svg" viewBox="0 0 64 64" role="img" aria-label="Galaxy icon">
  <defs>
    <radialGradient id="core" cx="50%" cy="50%" r="55%">
      <stop offset="0%" stop-color="#fff6c2" />
      <stop offset="45%" stop-color="#ffb85c" />
      <stop offset="100%" stop-color="#ff5a3d" />
    </radialGradient>
    <linearGradient id="armA" x1="0%" y1="0%" x2="100%" y2="100%">
      <stop offset="0%" stop-color="#8ae0ff" />
      <stop offset="100%" stop-color="#2f7dff" />
    </linearGradient>
    <linearGradient id="armB" x1="100%" y1="0%" x2="0%" y2="100%">
      <stop offset="0%" stop-color="#d7b8ff" />
      <stop offset="100%" stop-color="#6e52ff" />
    </linearGradient>
  </defs>
  <rect width="64" height="64" rx="10" fill="#060914" />
  <path
    d="M10 28c9-7 18-10 27-9 7 0 12 2 17 6-5 0-9 2-13 4-7 4-13 9-24 10-5 1-9 0-14-1 2-4 4-7 7-10z"
    fill="url(#armA)"
    opacity="0.72"
  />
  <path
    d="M54 36c-9 7-18 10-27 9-7 0-12-2-17-6 5 0 9-2 13-4 7-4 13-9 24-10 5-1 9 0 14 1-2 4-4 7-7 10z"
    fill="url(#armB)"
    opacity="0.72"
  />
  <circle cx="32" cy="32" r="7.8" fill="url(#core)" />
  <circle cx="32" cy="32" r="2.2" fill="#fff9e0" />
  <circle cx="18" cy="15" r="1.4" fill="#b4d9ff" />
  <circle cx="48" cy="14" r="1.2" fill="#ffffff" />
  <circle cx="52" cy="48" r="1.5" fill="#d6e8ff" />
  <circle cx="14" cy="47" r="1.1" fill="#c4beff" />
</svg>
